<?xml version="1.0" standalone="no"?>
<!DOCTYPE svg PUBLIC "-//W3C//DTD SVG 20010904//EN"
 "http://www.w3.org/TR/2001/REC-SVG-20010904/DTD/svg10.dtd">
<svg version="1.0" xmlns="http://www.w3.org/2000/svg"
 width="263.000000pt" height="85.000000pt" viewBox="0 0 263.000000 85.000000"
 preserveAspectRatio="xMidYMid meet">
<metadata>
Created by potrace 1.10, written by Peter Selinger 2001-2011
</metadata>
<g transform="translate(0.000000,85.000000) scale(0.100000,-0.100000)"
fill="#000000" stroke="none">
<path d="M183 814 c-107 -53 -167 -151 -167 -274 -1 -124 61 -223 172 -277 96
-46 226 -34 312 28 12 8 43 -18 161 -136 147 -147 178 -167 187 -121 3 13 -39
62 -143 166 l-148 148 20 29 c34 50 47 96 47 168 0 86 -34 165 -95 220 -64 58
-111 75 -210 75 -72 0 -93 -4 -136 -26z m257 -66 c37 -22 64 -49 85 -82 27
-44 30 -58 30 -126 0 -68 -3 -82 -30 -126 -19 -30 -49 -60 -79 -79 -44 -27
-58 -30 -126 -30 -68 0 -82 3 -126 30 -161 100 -149 342 20 421 78 36 156 33
226 -8z"/>
<path d="M290 713 c-51 -20 -76 -70 -59 -120 18 -55 82 -78 138 -48 73 37 49
156 -35 169 -16 3 -36 3 -44 -1z m73 -64 c28 -44 -25 -95 -72 -69 -24 12 -29
58 -9 78 17 17 68 11 81 -9z"/>
<path d="M236 495 c-22 -8 -53 -27 -70 -44 l-30 -31 29 -31 c85 -89 209 -93
298 -11 15 14 27 33 27 43 0 34 -91 89 -147 89 -16 0 -16 -1 2 -75 13 -57 13
-61 -6 -80 -19 -19 -19 -19 -40 1 -18 18 -19 26 -11 60 23 92 23 94 5 94 -10
-1 -36 -7 -57 -15z m12 -77 c-3 -36 -24 -44 -41 -16 -12 19 6 48 30 48 10 0
13 -9 11 -32z m186 10 c8 -14 7 -21 -6 -34 -21 -22 -38 -10 -38 27 0 23 4 30
16 27 9 -2 22 -11 28 -20z"/>
<path d="M1004 790 c-39 -16 -64 -59 -64 -111 0 -80 66 -128 147 -107 30 8 73
53 73 77 0 20 -39 11 -64 -14 -29 -29 -56 -32 -84 -7 -32 26 -37 63 -12 95 26
33 72 36 97 7 18 -21 63 -28 63 -9 0 6 -15 26 -34 45 -35 35 -75 43 -122 24z"/>
<path d="M1303 788 c3 -7 24 -58 46 -113 33 -84 44 -100 63 -103 22 -3 28 7
66 106 23 60 42 112 42 116 0 4 -12 6 -27 4 -23 -3 -29 -12 -51 -80 -13 -43
-27 -76 -31 -73 -4 2 -18 38 -31 79 -22 72 -25 76 -53 76 -20 0 -27 -4 -24
-12z"/>
<path d="M970 343 c0 -5 -8 -56 -19 -115 l-18 -108 27 0 c27 0 28 2 35 78 l8
77 35 -77 c19 -43 38 -78 42 -78 4 0 20 30 35 68 15 37 31 71 35 75 4 5 11
-26 15 -67 7 -75 7 -76 34 -76 l28 0 -12 68 c-7 37 -16 88 -20 115 -5 41 -9
47 -30 47 -20 0 -28 -11 -52 -70 -15 -38 -30 -70 -33 -70 -3 0 -18 32 -34 70
-24 59 -32 70 -52 70 -13 0 -24 -3 -24 -7z"/>
<path d="M1456 342 c-3 -6 -21 -50 -40 -98 -19 -49 -37 -97 -41 -107 -6 -13
-2 -17 18 -17 17 0 28 7 32 20 5 16 15 20 55 20 39 0 49 -3 53 -20 3 -14 14
-20 31 -20 14 0 26 1 26 3 0 2 -20 52 -44 112 -34 84 -49 111 -64 113 -11 2
-23 -1 -26 -6z m38 -86 c3 -13 9 -31 12 -40 5 -13 -1 -16 -26 -16 -25 0 -31 3
-26 16 3 9 9 27 12 40 8 31 20 31 28 0z"/>
<path d="M1730 324 c0 -21 5 -24 34 -24 l35 0 -6 -90 -6 -90 29 0 29 0 -3 90
-3 90 35 0 c31 0 36 3 36 24 0 24 -1 25 -90 25 -89 0 -90 -1 -90 -25z"/>
<path d="M2124 340 c-39 -16 -64 -59 -64 -111 0 -80 66 -128 147 -107 30 8 73
53 73 77 0 20 -39 11 -64 -14 -29 -29 -56 -32 -84 -7 -32 26 -37 63 -12 95 26
33 72 36 97 7 18 -21 63 -28 63 -9 0 6 -15 26 -34 45 -35 35 -75 43 -122 24z"/>
<path d="M2450 348 c0 -2 -1 -54 -3 -116 l-2 -112 26 0 c24 0 25 3 25 46 l-1
46 43 2 42 1 0 -47 c0 -43 2 -48 23 -48 22 0 22 2 20 112 -2 106 -3 113 -22
116 -19 3 -21 -2 -21 -42 l0 -46 -46 0 -46 0 4 43 c2 37 0 42 -20 45 -12 2
-22 2 -22 0z"/>
</g>
</svg>
